<svg xmlns="http://www.w3.org/2000/svg" viewBox="0 0 512 512">
  <!-- Toolbox 외곽 -->
  <rect x="96" y="160" width="320" height="240" rx="20" ry="20" fill="none" stroke="black" stroke-width="8"/>
  <rect x="200" y="120" width="112" height="40" rx="10" ry="10" fill="none" stroke="black" stroke-width="8"/>

  <!-- 중앙 원 -->
  <circle cx="256" cy="280" r="64" fill="#e50914"/>

  <!-- Tron 로고 (30% 축소 + 위치 이동 적용) -->
  <g transform="translate(213, 242) scale(1.4)">
    <path fill="white" d="M61.55,19.28c-3-2.77-7.15-7-10.53-10l-.2-.14a3.82,3.82,0,0,0-1.11-.62l0,0C41.56,7,3.63-.09,2.89,0a1.4,1.4,0,0,0-.58.22L2.12.37a2.23,2.23,0,0,0-.52.84l-.05.13v.71l0,.11C5.82,14.05,22.68,53,26,62.14c.2.62.58,1.8,1.29,1.86h.16c.38,0,2-2.14,2-2.14S58.41,26.74,61.34,23a9.46,9.46,0,0,0,1-1.48A2.41,2.41,0,0,0,61.55,19.28ZM36.88,23.37,49.24,13.12l7.25,6.68Zm-4.8-.67L10.8,5.26l34.43,6.35ZM34,27.27l21.78-3.51-24.9,30ZM7.91,7,30.3,26,27.06,53.78Z"/>
  </g>
</svg>
